{
    "asset" : {
        "generator" : "Khronos glTF Blender I/O v1.4.40",
        "version" : "2.0"
    },
    "scene" : 0,
    "scenes" : [
        {
            "name" : "Scene",
            "nodes" : [
                0
            ]
        }
    ],
    "nodes" : [
        {
            "mesh" : 0,
            "name" : "Chess",
            "rotation" : [
                0.7071068286895752,
                0,
                0,
                0.7071067094802856
            ],
            "scale" : [
                0.10664819180965424,
                0.10664819180965424,
                0.10664819180965424
            ]
        }
    ],
    "meshes" : [
        {
            "name" : "Chess",
            "primitives" : [
                {
                    "attributes" : {
                        "POSITION" : 0,
                        "NORMAL" : 1,
                        "TEXCOORD_0" : 2
                    },
                    "indices" : 3
                }
            ]
        }
    ],
    "accessors" : [
        {
            "bufferView" : 0,
            "componentType" : 5126,
            "count" : 16044,
            "max" : [
                66.50939178466797,
                66.91558837890625,
                182.0074005126953
            ],
            "min" : [
                -67.73261260986328,
                -67.18836212158203,
                -139.80519104003906
            ],
            "type" : "VEC3"
        },
        {
            "bufferView" : 1,
            "componentType" : 5126,
            "count" : 16044,
            "type" : "VEC3"
        },
        {
            "bufferView" : 2,
            "componentType" : 5126,
            "count" : 16044,
            "type" : "VEC2"
        },
        {
            "bufferView" : 3,
            "componentType" : 5123,
            "count" : 77178,
            "type" : "SCALAR"
        }
    ],
    "bufferViews" : [
        {
            "buffer" : 0,
            "byteLength" : 192528,
            "byteOffset" : 0
        },
        {
            "buffer" : 0,
            "byteLength" : 192528,
            "byteOffset" : 192528
        },
        {
            "buffer" : 0,
            "byteLength" : 128352,
            "byteOffset" : 385056
        },
        {
            "buffer" : 0,
            "byteLength" : 154356,
            "byteOffset" : 513408
        }
    ],
    "buffers" : [
        {
            "byteLength" : 667764,
            "uri" : "data:application/octet-stream;base64,"
        }
    ]
}
